<?xml version="1.0" standalone="no"?>
<!DOCTYPE svg PUBLIC "-//W3C//DTD SVG 20010904//EN"
 "http://www.w3.org/TR/2001/REC-SVG-20010904/DTD/svg10.dtd">
<svg version="1.0" xmlns="http://www.w3.org/2000/svg"
 width="736.000000pt" height="736.000000pt" viewBox="0 0 736.000000 736.000000"
 preserveAspectRatio="xMidYMid meet">
<metadata>
Created by potrace 1.14, written by Peter Selinger 2001-2017
</metadata>
<g transform="translate(0.000000,736.000000) scale(0.100000,-0.100000)"
fill="#000000" stroke="none">
<path d="M3717 7354 c-1 -1 -42 -5 -91 -8 -96 -7 -177 -15 -216 -22 -14 -3
-38 -7 -55 -9 -80 -11 -120 -19 -182 -33 -23 -5 -44 -7 -48 -4 -3 3 -5 0 -5
-5 0 -6 -8 -10 -17 -9 -10 2 -35 -3 -56 -10 -21 -7 -48 -15 -60 -16 -12 -2
-26 -6 -32 -10 -5 -3 -26 -9 -45 -14 -19 -4 -37 -8 -40 -9 -50 -12 -259 -88
-385 -140 -113 -46 -399 -186 -403 -197 -2 -4 -8 -8 -14 -8 -6 0 -44 -20 -86
-45 -41 -25 -78 -45 -82 -45 -5 0 -10 -4 -12 -9 -1 -4 -21 -19 -44 -32 -61
-36 -122 -77 -184 -122 -110 -82 -215 -161 -220 -167 -3 -3 -14 -13 -26 -21
-42 -28 -191 -166 -319 -294 -114 -114 -173 -178 -255 -275 -12 -14 -30 -35
-40 -47 -49 -57 -200 -262 -200 -271 0 -6 -6 -15 -13 -19 -16 -9 -137 -202
-137 -218 0 -10 56 -73 161 -181 27 -28 49 -53 49 -55 0 -2 -14 -4 -31 -4 -26
0 -35 -7 -60 -50 -64 -109 -207 -407 -253 -525 -26 -69 -52 -134 -57 -145 -15
-36 -102 -342 -115 -410 -2 -10 -6 -37 -10 -59 -3 -22 -7 -43 -9 -46 -4 -6
-13 -62 -20 -126 -3 -22 -7 -55 -10 -74 -15 -93 -28 -492 -17 -514 3 -5 6 -32
8 -60 4 -65 13 -151 15 -151 1 0 3 -9 4 -20 9 -72 48 -248 72 -325 2 -8 4 -16
4 -17 -1 -2 5 -20 13 -40 8 -21 28 -74 45 -118 16 -44 36 -93 44 -110 8 -16
25 -50 36 -75 73 -157 205 -352 335 -494 36 -40 296 -319 426 -457 19 -21 58
-62 85 -91 337 -363 517 -544 651 -654 59 -49 229 -164 242 -164 5 0 15 -7 22
-15 7 -9 15 -13 18 -11 3 3 18 -4 33 -15 16 -11 34 -17 39 -14 6 4 19 -2 28
-12 14 -17 152 -80 232 -108 3 -1 12 -4 20 -8 22 -8 119 -38 133 -41 7 -2 31
-8 54 -14 59 -17 219 -50 278 -57 28 -4 57 -8 65 -10 32 -9 212 -18 345 -19
169 0 315 10 440 30 17 2 48 7 70 9 22 3 51 7 65 10 14 4 36 8 49 11 163 34
170 37 171 74 1 12 3 11 11 -2 5 -10 19 -18 30 -18 21 0 190 45 224 59 11 5
74 28 140 51 146 52 166 61 380 166 187 92 268 135 273 147 2 4 8 7 13 7 5 0
55 30 112 67 56 38 107 70 112 73 12 5 26 16 180 130 55 41 102 77 105 80 3 3
27 23 55 45 27 22 57 47 66 55 9 8 49 44 88 80 81 72 266 258 333 334 24 27
53 60 65 73 11 13 36 43 55 66 18 22 41 49 51 59 9 10 17 22 17 28 0 5 6 13
13 17 7 4 19 18 27 29 8 12 50 70 93 130 43 60 82 116 87 124 97 151 170 274
170 287 0 6 4 13 8 15 12 5 154 298 203 418 45 112 108 290 112 318 1 9 5 22
9 27 7 12 21 73 17 77 -1 2 2 12 8 23 6 11 14 37 17 59 4 21 8 41 11 45 4 7
13 46 19 86 2 11 8 47 15 80 16 87 20 119 37 285 14 131 6 492 -13 590 -3 19
-6 38 -5 42 1 4 -3 31 -8 60 -6 29 -13 69 -16 88 -3 19 -9 49 -14 65 -5 17
-24 77 -41 135 -17 58 -37 119 -44 135 -7 17 -26 59 -41 95 -16 36 -31 67 -34
70 -3 3 -12 21 -20 40 -8 19 -16 37 -19 40 -3 3 -15 21 -25 40 -40 72 -162
252 -201 296 -5 7 -26 31 -45 55 -42 52 -150 178 -182 211 -71 75 -331 348
-358 378 -36 39 -245 260 -330 350 -30 32 -102 109 -160 171 -185 198 -322
328 -398 376 -15 10 -33 23 -39 29 -7 7 -29 22 -50 35 -21 13 -44 29 -51 36
-7 7 -18 13 -24 13 -5 0 -22 9 -36 19 -122 87 -479 225 -683 265 -31 6 -95 19
-114 23 -11 2 -38 6 -60 9 -22 2 -56 7 -75 10 -88 12 -463 27 -473 18z m911
-3088 c8 -4 26 -9 40 -11 34 -4 69 -12 81 -19 10 -6 23 -64 26 -114 1 -17 4
-34 6 -36 16 -16 -8 -294 -33 -381 -15 -53 -16 -57 -22 -80 -2 -11 -14 -42
-25 -68 -12 -27 -21 -55 -21 -63 0 -8 -4 -14 -10 -14 -5 0 -10 -7 -10 -15 0
-8 -16 -45 -36 -82 -105 -195 -248 -373 -409 -508 -26 -22 -55 -47 -64 -55
-14 -13 -147 -101 -206 -137 -43 -26 -154 -76 -230 -105 -126 -46 -125 -46
-125 -69 0 -19 -3 -18 -31 12 -127 137 -191 198 -206 195 -10 -2 -38 -7 -63
-11 -25 -4 -54 -9 -65 -12 -31 -7 -269 -11 -280 -4 -5 3 -14 6 -20 6 -12 0
-14 136 -3 215 8 61 10 70 33 175 13 61 65 195 114 292 22 45 41 86 41 91 0 4
-10 19 -22 32 -24 25 -25 25 29 3 13 -5 19 1 104 117 105 143 271 307 372 368
15 9 27 20 27 24 0 4 5 8 11 8 6 0 23 8 37 19 111 77 311 165 451 198 98 22
102 23 150 29 25 2 47 6 49 8 7 8 298 0 310 -8z"/>
</g>
</svg>
