<svg enable-background="new 0 0 249.138 41.763" height="41.763" viewBox="0 0 249.138 41.763" width="249.138" xmlns="http://www.w3.org/2000/svg"><path d="m55.237 41.524h4.343v-5.704h5.422v-2.819h-5.422v-2.438h6.348v-2.999h-10.69v13.96zm35.281-14.199c-2.272 0-4.044.635-5.317 1.905-1.272 1.27-1.908 3.044-1.908 5.323 0 1.631.321 2.99.964 4.076.643 1.085 1.48 1.879 2.515 2.38 1.034.502 2.34.753 3.919.753 1.552 0 2.849-.291 3.89-.872 1.04-.58 1.835-1.394 2.387-2.438.549-1.045.825-2.383.825-4.014 0-2.248-.63-3.995-1.891-5.242s-3.055-1.871-5.384-1.871zm2.185 10.304c-.509.604-1.229.905-2.157.905-.903 0-1.617-.308-2.144-.924-.524-.616-.787-1.629-.787-3.038 0-1.422.265-2.441.793-3.057.527-.616 1.228-.924 2.1-.924.91 0 1.63.303 2.162.909.53.606.797 1.567.797 2.881 0 1.563-.255 2.645-.764 3.248zm34.156-1.018c-.303-.375-.533-.619-.692-.734-.235-.172-.61-.343-1.125-.514.643-.146 1.149-.33 1.518-.553.579-.35 1.035-.805 1.366-1.366.331-.562.496-1.23.496-2.005 0-.889-.216-1.644-.649-2.262-.433-.619-1.001-1.043-1.707-1.271-.707-.229-1.729-.343-3.064-.343h-7.207v13.961h4.344v-5.667h.382c.395 0 .747.108 1.06.324.229.166.49.523.782 1.076l2.312 4.267h4.886l-2.095-4.046c-.103-.203-.305-.492-.607-.867zm-3.051-4.019c-.182.234-.415.381-.702.438-.565.127-.947.19-1.145.19h-1.823v-2.838h1.899c.789 0 1.326.12 1.613.362.286.241.429.587.429 1.037 0 .306-.09.575-.271.811zm31.58 3.487c0 .774-.212 1.372-.635 1.794-.424.422-1.008.633-1.752.633-.751 0-1.338-.215-1.761-.643-.424-.428-.635-1.022-.635-1.784v-8.516h-4.314v8.317c0 .686.134 1.473.4 2.361.165.552.473 1.088.922 1.607.448.52.942.921 1.483 1.203.541.283 1.214.472 2.019.566.806.096 1.549.144 2.229.144 1.177 0 2.186-.155 3.025-.466.604-.223 1.182-.608 1.732-1.157.551-.548.955-1.189 1.213-1.922.257-.733.387-1.512.387-2.337v-8.317h-4.314v8.517zm30.652-.02-2.193-8.495h-5.687v13.961h3.542v-10.648l2.723 10.647h3.206l2.729-10.647v10.647h3.541v-13.961h-5.683zm-170.895-25.136-4.536-9.69c-.078-.156-.141-.281-.141-.406 0-.109.095-.203.329-.234v-.218h-3.41v.218c.204.031.329.109.329.281 0 .141-.094.312-.172.468l-4.271 9.581c-.218.499-.312.577-.593.593v.218h2.784v-.218c-.141-.016-.234-.094-.234-.235 0-.202.234-.515 1.142-2.543h5.364c1.048 2.231 1.188 2.45 1.188 2.622 0 .078-.078.156-.281.156v.218h3.112v-.218c-.329 0-.392-.11-.61-.593zm-8.04-3.963 1.846-4.089 1.877 4.089zm24.784-6.367c.266.016.406.078.406.219 0 .109-.094.281-.172.405l-3.473 6.43-3.158-6.024c-.235-.451-.345-.593-.345-.733 0-.187.204-.296.406-.296v-.219h-3.472v.218c.344 0 .407.125.407.469v9.986c0 .343-.063.468-.407.468v.218h2.784v-.218c-.406 0-.47-.125-.47-.468v-7.084h.031l3.988 7.771h.22l4.035-7.693h.031v7.007c0 .343-.062.468-.376.468v.218h3.019v-.218c-.359 0-.422-.125-.422-.468v-9.987c0-.344.062-.469.422-.469v-.218h-3.456v.218zm20.841 9.301h-7.664v-3.06h4.911c.188 0 .328.032.406.094.095.062.125.156.125.28h.22v-2.62h-.22c0 .281-.156.406-.531.406h-4.911v-2.778h7.523c.375 0 .531.125.531.405h.22v-2.59h-.22c0 .218-.156.343-.531.343h-10.15v.218l.406.469v9.986c0 .343-.062.468-.406.468v.218h10.291c.375 0 .532.125.532.344h.219v-2.56h-.219c.001.251-.157.377-.532.377zm18.329 1.154-2.894-4.088c1.924-.297 3.066-1.467 3.066-3.324 0-1.826-1.439-3.261-4.16-3.261h-7.539v.218c.375 0 .438.125.438.469v9.986c0 .343-.062.468-.438.468v.218h3.097v-.218c-.375 0-.438-.125-.438-.468v-4.15h3.223l2.861 4.072c.157.219.204.297.204.421 0 .063-.031.125-.219.125v.218h3.472v-.218c-.329 0-.454-.156-.673-.468zm-8.822-5.992v-2.84h4.739c1.126 0 2.034.437 2.034 1.42 0 .982-.908 1.42-2.034 1.42zm16.088-4.463c.5 0 .562.125.562.469v9.986c0 .343-.062.468-.562.468v.218h3.362v-.218c-.5 0-.579-.125-.579-.468v-9.986c0-.344.079-.469.579-.469v-.218h-3.362zm20.847 7.256c.031.062.062.204.062.281 0 .702-1.861 1.919-4.035 1.919-2.675 0-4.911-1.124-4.911-3.995 0-2.872 2.236-3.995 4.724-3.995 1.955 0 3.848.999 3.848 1.373 0 .078 0 .156-.016.25l.234.125 1.549-2.481-.22-.078c-.109.172-.203.188-.359.188-.328 0-2.174-1.217-4.927-1.217-3.832 0-7.054 2.184-7.054 5.836 0 4.104 3.457 5.836 6.944 5.836 3.941 0 5.146-1.841 5.615-1.841.046 0 .141.015.187.046l.126-.062-1.61-2.293zm15.837 3.667v.218h3.112v-.218c-.329 0-.391-.11-.61-.593l-4.535-9.69c-.078-.156-.141-.281-.141-.406 0-.109.093-.203.328-.234v-.218h-3.41v.218c.204.031.329.109.329.281 0 .141-.094.312-.172.468l-4.271 9.581c-.219.499-.312.577-.594.593v.218h2.784v-.218c-.141-.016-.235-.094-.235-.235 0-.202.235-.515 1.142-2.543h5.365c1.048 2.231 1.188 2.45 1.188 2.622.001.078-.077.156-.28.156zm-5.537-4.556 1.846-4.089 1.877 4.089zm23.85-6.367c.375 0 .407.125.407.469v7.162l-6.789-7.194c-.109-.108-.172-.187-.172-.233 0-.141.125-.203.423-.203v-.219h-3.332v.218c.345 0 .375.125.375.469v9.986c0 .343-.03.468-.375.468v.218h2.77v-.218c-.345 0-.423-.125-.423-.468v-7.615l7.038 7.537c.204.219.297.281.297.421 0 .095-.157.125-.312.125v.218h2.893v-.218c-.313 0-.423-.125-.423-.468v-9.986c0-.344.109-.469.423-.469v-.218h-2.8zm31.789 10.33-4.536-9.69c-.079-.156-.141-.281-.141-.406 0-.109.094-.203.328-.234v-.218h-3.41v.218c.204.031.329.109.329.281 0 .141-.093.312-.172.468l-4.271 9.581c-.219.499-.312.577-.594.593v.218h2.784v-.218c-.141-.016-.235-.094-.235-.235 0-.202.235-.515 1.142-2.543h5.366c1.047 2.231 1.188 2.45 1.188 2.622 0 .078-.079.156-.282.156v.218h3.112v-.218c-.326 0-.389-.11-.608-.593zm-8.04-3.963 1.846-4.089 1.877 4.089zm25.533 3.136.126-.062-1.611-2.293-.156.108c.031.062.062.204.062.281 0 .702-1.86 1.919-4.035 1.919-2.675 0-4.911-1.124-4.911-3.995 0-2.872 2.236-3.995 4.723-3.995 1.955 0 3.848.999 3.848 1.373 0 .078 0 .156-.015.25l.233.125 1.55-2.481-.22-.078c-.109.172-.203.188-.359.188-.329 0-2.174-1.217-4.927-1.217-3.832 0-7.054 2.184-7.054 5.836 0 4.104 3.457 5.836 6.943 5.836 3.942 0 5.146-1.841 5.616-1.841.048-.001.142.014.187.046zm14.79-9.721h-9.76c-.375 0-.531-.125-.531-.375h-.219v2.606h.219c0-.266.156-.391.531-.391h3.771v8.832c0 .343-.062.468-.47.468v.218h3.175v-.218c-.407 0-.484-.125-.484-.468v-8.831h3.769c.375 0 .531.125.531.391h.219v-2.607h-.219c-.001.249-.157.375-.532.375zm7.282.218c.5 0 .562.125.562.469v9.986c0 .343-.062.468-.562.468v.218h3.362v-.218c-.5 0-.579-.125-.579-.468v-9.986c0-.344.079-.469.579-.469v-.218h-3.362zm16.171-.374c-3.613 0-6.521 2.06-6.521 5.836 0 3.775 2.908 5.836 6.521 5.836s6.522-2.061 6.522-5.836c0-3.777-2.909-5.836-6.522-5.836zm0 9.83c-2.377 0-4.301-1.389-4.301-3.995s1.924-3.995 4.301-3.995 4.302 1.388 4.302 3.995c-.001 2.606-1.925 3.995-4.302 3.995zm25.611-9.456v-.218h-2.8v.218c.376 0 .407.125.407.469v7.162l-6.788-7.194c-.109-.108-.172-.187-.172-.233 0-.141.125-.203.423-.203v-.219h-3.332v.218c.345 0 .375.125.375.469v9.986c0 .343-.03.468-.375.468v.218h2.77v-.218c-.346 0-.423-.125-.423-.468v-7.615l7.038 7.537c.203.219.296.281.296.421 0 .095-.156.125-.312.125v.218h2.893v-.218c-.312 0-.422-.125-.422-.468v-9.986c0-.344.11-.469.422-.469z" fill="#fff"/><path d="m249.138 18.802h-249.138v3.684h249.138z" fill="#d04132"/></svg>