<svg width="361" height="368" viewBox="0 0 361 368" fill="none" xmlns="http://www.w3.org/2000/svg">
<g clip-path="url(#clip0_39_2019)">
<path d="M150.994 195.078C145.746 204.146 139.837 218.362 141.492 234.594C141.508 234.748 141.451 234.901 141.337 235.007C141.224 235.113 141.068 235.16 140.914 235.134C133.791 233.938 131.272 232.585 130.197 232.007C130.057 231.932 129.903 231.849 129.808 231.808C129.736 231.896 129.623 232.063 129.514 232.225C129.447 232.324 129.371 232.436 129.285 232.561C129.285 232.561 129.285 232.561 129.285 232.561L72.1656 315.587C81.2037 325.185 87.88 332.228 92.7679 337.384C105.057 350.349 106.061 351.408 105.984 352.309C105.953 352.678 105.701 352.865 105.535 352.99C105.45 353.053 105.377 353.107 105.326 353.181C105.324 353.184 105.321 353.186 105.32 353.189C105.317 353.192 105.316 353.196 105.313 353.199C105.274 353.251 105.225 353.293 105.171 353.325C105.163 353.329 105.155 353.333 105.147 353.337C105.125 353.349 105.102 353.359 105.078 353.367C105.068 353.371 105.059 353.374 105.049 353.376C105.023 353.384 104.996 353.389 104.968 353.392C104.963 353.392 104.959 353.394 104.954 353.395C104.952 353.395 104.951 353.394 104.949 353.395C104.916 353.397 104.883 353.396 104.849 353.391C104.837 353.39 104.826 353.386 104.814 353.384C104.794 353.38 104.773 353.375 104.754 353.368C104.739 353.363 104.726 353.357 104.712 353.351C104.704 353.347 104.695 353.345 104.686 353.34C87.6643 344.512 80.9776 337.331 52.8364 307.108C46.6246 300.436 39.5837 292.874 31.1124 283.876C31.0711 283.832 31.0409 283.782 31.0186 283.73C29.1598 281.753 27.3754 279.7 25.6679 277.569C16.7765 266.477 10.186 253.609 6.07956 239.323C0.808559 220.986 -0.184945 201.193 3.12598 180.494C6.59406 158.815 14.6576 137.145 27.0924 116.087C27.1842 115.932 27.3494 115.842 27.5214 115.842C27.5814 115.842 27.6423 115.853 27.7013 115.876L105.004 145.794C105.007 145.795 105.009 145.797 105.012 145.798C105.032 145.806 105.051 145.817 105.07 145.828C105.081 145.835 105.093 145.84 105.104 145.847C105.122 145.86 105.138 145.874 105.154 145.889C105.164 145.898 105.175 145.905 105.184 145.915C105.185 145.916 105.186 145.917 105.187 145.917L117.382 158.867C129.442 171.674 145.804 189.05 150.925 194.489C151.076 194.649 151.104 194.888 150.994 195.078Z" stroke="#333333" stroke-width="1.99677" stroke-linecap="round" stroke-linejoin="round"/>
<path d="M359.287 173.4C359.287 119.94 333.395 98.3361 305.657 68.8789C374.035 148.704 300.994 299.255 177.537 331.605C205.269 361.053 199.495 355.362 204.564 360.745C291.399 337.998 359.287 252.385 359.287 173.4Z" fill="#B3DDF4" stroke="#333333" stroke-width="0.798709" stroke-linecap="round" stroke-linejoin="round"/>
<path d="M328.173 92.6681C331.41 96.1074 333.095 97.869 329.855 94.4125C329.35 93.8736 328.682 93.1829 328.173 92.6681Z" fill="#F8F6E9" stroke="#333333" stroke-width="0.798709" stroke-linecap="round" stroke-linejoin="round"/>
<path d="M305.657 68.8789C350.41 116.404 321.822 85.9241 276.702 38.0114L198.342 108.135C208.138 118.536 217.935 128.941 227.729 139.342L305.657 68.8789Z" fill="#B3DDF4" stroke="#333333" stroke-width="0.798709" stroke-linecap="round" stroke-linejoin="round"/>
<path d="M198.341 108.135L276.701 38.0114C247.574 5.49095 199.795 -6.11982 148.516 6.95451C96.4515 20.2267 49.1546 55.6811 20.4494 103.152L97.7759 133.08C123.611 92.2294 175.745 83.0685 198.341 108.134V108.135Z" fill="white" stroke="#333333" stroke-width="0.798709" stroke-linecap="round" stroke-linejoin="round"/>
<path d="M227.729 139.342L228.686 140.356C228.369 140.019 228.049 139.679 227.729 139.342Z" fill="#F8F6E9" stroke="#333333" stroke-width="0.798709" stroke-linecap="round" stroke-linejoin="round"/>
<path d="M228.686 140.356C225.107 136.562 232.471 143.774 235.512 155.077C244.682 189.007 216.221 231.126 177.536 242.34C177.496 250.817 177.553 328.208 177.536 331.605C300.162 299.473 374.482 149.226 305.657 68.8789C221.732 144.765 227.259 138.839 228.686 140.356Z" fill="white" stroke="#333333" stroke-width="0.798709" stroke-linecap="round" stroke-linejoin="round"/>
<path d="M347.786 232.979C340.044 252.52 328.971 271.192 314.875 288.476C300.654 305.914 284.092 321.028 265.651 333.396C246.397 346.311 225.886 355.674 204.69 361.227C204.513 361.273 204.326 361.219 204.201 361.086C202.679 359.47 202.128 358.845 201.365 357.979C199.585 355.96 196.606 352.58 177.174 331.945C177.17 331.941 177.168 331.936 177.164 331.932C177.146 331.912 177.132 331.89 177.118 331.868C177.11 331.856 177.101 331.844 177.094 331.832C177.08 331.804 177.07 331.775 177.061 331.746C177.059 331.737 177.054 331.728 177.052 331.719C177.043 331.681 177.038 331.642 177.038 331.603C177.045 330.288 177.04 318.09 177.034 302.646C177.025 278.091 177.013 247.532 177.038 242.338C177.04 242.118 177.186 241.925 177.398 241.863C195.789 236.532 212.795 223.807 224.055 206.952C235.349 190.047 239.35 171.187 235.031 155.207C233.677 150.175 231.144 144.936 227.872 140.389C227.764 140.3 227.66 140.182 227.604 140.02C227.57 139.973 227.535 139.925 227.499 139.878C227.306 139.616 227.041 139.258 227.408 138.954C227.603 138.793 227.772 138.801 227.936 138.895C229.254 137.082 234.902 131.997 257.259 111.867C268.575 101.679 284.072 87.725 305.322 68.5107C305.323 68.5105 305.323 68.5102 305.323 68.5097C305.324 68.5095 305.324 68.5093 305.324 68.509C305.333 68.501 305.343 68.4952 305.353 68.4879C305.367 68.4765 305.382 68.4644 305.397 68.4549C305.415 68.4443 305.433 68.4365 305.452 68.4282C305.461 68.4241 305.47 68.4185 305.479 68.4151C305.5 68.4069 305.522 68.4016 305.545 68.3965C305.552 68.3948 305.559 68.3919 305.566 68.3907C305.596 68.3851 305.626 68.3824 305.657 68.3824C305.667 68.3824 305.678 68.3827 305.688 68.3834C305.7 68.3841 305.711 68.3875 305.722 68.389C305.738 68.3911 305.755 68.3931 305.771 68.397C305.787 68.4008 305.803 68.4064 305.819 68.4118C305.835 68.4171 305.85 68.4222 305.865 68.4292C305.881 68.4365 305.895 68.4452 305.91 68.4542C305.924 68.4624 305.938 68.4702 305.951 68.4797C305.966 68.4906 305.979 68.5034 305.993 68.5163C306.002 68.5243 306.011 68.5303 306.019 68.5391C308.556 71.2334 311.104 73.8887 313.568 76.4566C338.367 102.307 359.785 124.633 359.785 173.4C359.785 192.837 355.748 212.882 347.786 232.979Z" stroke="#333333" stroke-width="1.99677" stroke-linecap="round" stroke-linejoin="round"/>
<path d="M227.729 139.342C189.172 98.3929 187.922 97.069 227.726 139.342H227.729Z" fill="#F8F6E9" stroke="#333333" stroke-width="0.798709" stroke-linecap="round" stroke-linejoin="round"/>
<path d="M198.341 108.135C175.15 82.963 123.276 92.759 97.7759 133.08L152.662 191.365C173.02 159.167 210.329 146.569 235.512 155.077C231.787 141.235 226.274 138.452 198.341 108.135Z" fill="#B3DDF4" stroke="#333333" stroke-width="0.798709" stroke-linecap="round" stroke-linejoin="round"/>
<path d="M200.844 361.683V356.807L177.537 331.605V247.269L164.454 233.612V322.826L200.844 361.683Z" fill="#1DA876" stroke="#333333" stroke-width="0.798709" stroke-linecap="round" stroke-linejoin="round"/>
<path d="M164.454 322.826V233.612C156.176 235.549 148.395 235.883 140.997 234.644C128.021 232.464 130.58 229.808 128.875 232.279L71.5272 315.636C100.164 329.322 133.577 330.22 164.454 322.826V322.826Z" fill="#36F2B9" stroke="#333333" stroke-width="0.798709" stroke-linecap="round" stroke-linejoin="round"/>
<path d="M152.662 191.364L97.7759 133.08L20.4494 103.152C38.4783 122.298 35.6219 119.284 35.9355 119.597L104.824 146.258L144.225 188.1C144.255 188.1 144.164 188.075 152.662 191.364Z" fill="#9FC5D6" stroke="#333333" stroke-width="0.798709" stroke-linecap="round" stroke-linejoin="round"/>
<path d="M150.563 194.83C143.157 186.962 112.237 154.13 104.824 146.258C88.8406 173.88 91.9145 206.519 117.373 220.065L128.875 232.279C130.58 229.809 128.032 232.466 140.997 234.644C139.591 220.858 143.585 206.885 150.563 194.83Z" fill="#9FC5D6" stroke="#333333" stroke-width="0.798709" stroke-linecap="round" stroke-linejoin="round"/>
<path d="M71.5275 315.636L128.875 232.279L117.373 220.065L59.181 304.33L104.916 352.899C105.958 351.392 109.419 355.875 71.5278 315.636H71.5275Z" fill="#B3DDF4" stroke="#333333" stroke-width="0.798709" stroke-linecap="round" stroke-linejoin="round"/>
<path d="M104.824 146.258C96.0114 142.847 32.9941 118.457 27.5217 116.339C-18.2283 193.815 -0.318695 273.466 59.1807 304.329L117.372 220.065C91.7845 206.45 88.9154 173.751 104.824 146.257L104.824 146.258Z" fill="white" stroke="#333333" stroke-width="0.798709" stroke-linecap="round" stroke-linejoin="round"/>
<path d="M71.5276 315.636C111.444 358.026 104.895 351.071 108.118 354.492C136.754 368.179 169.967 369.077 200.844 361.683L164.454 322.826C133.581 330.219 100.167 329.324 71.5276 315.636Z" fill="#26C690" stroke="#333333" stroke-width="0.798709" stroke-linecap="round" stroke-linejoin="round"/>
<path d="M201.341 361.689C201.341 361.735 201.335 361.781 201.321 361.826C201.321 361.827 201.32 361.827 201.32 361.828C201.317 361.837 201.312 361.845 201.309 361.854C201.296 361.889 201.28 361.923 201.26 361.954C201.251 361.967 201.24 361.978 201.23 361.991C201.211 362.014 201.192 362.037 201.169 362.057C201.155 362.068 201.14 362.078 201.126 362.088C201.102 362.105 201.077 362.12 201.05 362.132C201.042 362.136 201.035 362.142 201.027 362.145C201.017 362.149 201.007 362.149 200.997 362.152C200.984 362.156 200.973 362.163 200.96 362.166C184.871 366.019 168.939 367.473 153.609 366.489C137.094 365.428 121.716 361.543 107.902 354.94C107.847 354.914 107.797 354.877 107.755 354.833L106.867 353.89C106.137 353.116 100.457 347.084 89.8279 335.796L71.1647 315.976C71.1609 315.972 71.1579 315.967 71.1543 315.963C71.1463 315.954 71.1393 315.944 71.132 315.935C71.1189 315.917 71.1067 315.899 71.096 315.88C71.0904 315.87 71.0851 315.861 71.08 315.851C71.0693 315.828 71.0606 315.806 71.0535 315.782C71.0516 315.776 71.0482 315.77 71.0465 315.764C71.046 315.762 71.046 315.76 71.0455 315.758C71.0375 315.726 71.0324 315.694 71.0307 315.661C71.0302 315.655 71.0312 315.648 71.0312 315.641C71.0309 315.615 71.0324 315.59 71.036 315.564C71.0375 315.553 71.0399 315.543 71.0421 315.532C71.0467 315.51 71.053 315.489 71.0605 315.468C71.0642 315.457 71.0678 315.447 71.0725 315.437C71.0822 315.415 71.0938 315.394 71.1067 315.373C71.1106 315.367 71.1128 315.36 71.1169 315.354L128.465 231.996C128.55 231.873 128.624 231.763 128.691 231.665C129.098 231.06 129.36 230.791 129.725 230.791C129.968 230.791 130.257 230.911 130.664 231.13C131.695 231.684 134.109 232.983 141.079 234.154C148.38 235.376 156.206 235.031 164.34 233.128C164.344 233.127 164.346 233.127 164.35 233.127C164.384 233.12 164.418 233.115 164.452 233.115C164.452 233.115 164.453 233.115 164.454 233.115C164.489 233.115 164.524 233.119 164.558 233.127C164.568 233.129 164.577 233.133 164.586 233.135C164.611 233.142 164.635 233.149 164.658 233.16C164.671 233.166 164.682 233.173 164.694 233.18C164.713 233.19 164.732 233.201 164.75 233.214C164.754 233.217 164.759 233.219 164.764 233.223C164.772 233.229 164.778 233.237 164.785 233.244C164.795 233.253 164.805 233.259 164.814 233.269L177.897 246.925C177.985 247.018 178.035 247.141 178.035 247.269V331.41L201.21 356.47C201.295 356.562 201.343 356.682 201.343 356.807V361.683C201.343 361.685 201.341 361.687 201.341 361.689Z" stroke="#333333" stroke-width="1.99677" stroke-linecap="round" stroke-linejoin="round"/>
<path d="M104.916 352.899L59.1806 304.33C48.744 298.916 39.4032 291.885 31.4753 283.536C78.483 333.466 84.2445 342.178 104.916 352.899Z" fill="#9FC5D6" stroke="#333333" stroke-width="0.798709" stroke-linecap="round" stroke-linejoin="round"/>
<path d="M328.609 92.8553C328.558 93.0256 328.419 93.1553 328.246 93.1961C328.046 93.2429 327.952 93.2196 327.752 93.0297L327.75 93.0309C327.747 93.0268 327.741 93.0207 327.734 93.0127C327.658 92.9395 327.567 92.8432 327.449 92.7195C327.234 92.494 326.911 92.1528 326.474 91.6908C325.601 90.7675 324.273 89.3612 322.452 87.4303C318.861 83.6239 313.354 77.7788 305.628 69.5746L228.176 139.608C232.332 144.775 234.325 148.751 235.993 154.948C236.041 155.125 235.987 155.314 235.852 155.44C235.719 155.565 235.527 155.606 235.352 155.548C211.271 147.412 173.914 158.684 153.083 191.629C153.082 191.631 153.081 191.632 153.079 191.634C153.078 191.637 153.077 191.64 153.075 191.642C153.057 191.668 153.037 191.692 153.015 191.714C153.01 191.719 153.004 191.724 152.998 191.729C152.979 191.747 152.958 191.763 152.936 191.778C152.927 191.784 152.918 191.789 152.909 191.794C152.886 191.808 152.861 191.819 152.836 191.829C152.83 191.831 152.823 191.834 152.817 191.836C152.785 191.847 152.752 191.854 152.718 191.857C152.715 191.858 152.713 191.859 152.71 191.859C152.704 191.86 152.698 191.858 152.693 191.859C152.667 191.861 152.641 191.86 152.615 191.858C152.604 191.857 152.593 191.856 152.582 191.854C152.556 191.85 152.53 191.843 152.504 191.834C152.497 191.832 152.49 191.831 152.483 191.828H152.483C148.427 190.259 146.327 189.444 145.237 189.021C144.486 188.729 144.187 188.613 144.106 188.583C144.013 188.56 143.928 188.511 143.862 188.441L104.539 146.681L35.8323 120.091C35.8072 120.083 35.7829 120.074 35.7594 120.063L35.7555 120.061C35.6909 120.036 35.6219 119.988 35.5731 119.939L35.5743 119.938C35.566 119.931 35.558 119.923 35.5502 119.916L35.5485 119.918C35.5446 119.913 35.5405 119.908 35.5366 119.903C35.498 119.867 35.465 119.832 35.4387 119.804L34.8307 119.158C33.5042 117.747 29.8719 113.884 20.0904 103.497C20.0892 103.495 20.088 103.494 20.0871 103.493C20.0649 103.469 20.046 103.444 20.0292 103.417C20.0244 103.41 20.0207 103.401 20.0166 103.394C20.0047 103.372 19.994 103.35 19.9855 103.328C19.9835 103.322 19.9804 103.318 19.9785 103.313C19.9768 103.308 19.9765 103.302 19.9751 103.297C19.9678 103.273 19.9624 103.249 19.9588 103.224C19.9576 103.216 19.9556 103.208 19.9549 103.2C19.9517 103.168 19.9517 103.136 19.9549 103.103C19.9556 103.097 19.9573 103.09 19.9583 103.083C19.9617 103.058 19.9673 103.032 19.9748 103.008C19.9777 102.998 19.9814 102.988 19.9853 102.978C19.9935 102.956 20.0035 102.935 20.0149 102.914C20.0183 102.908 20.02 102.901 20.0237 102.895C34.1311 79.5652 53.2883 58.4496 75.4244 41.831C97.5349 25.2317 122.767 13.005 148.393 6.4724C162.136 2.96834 175.843 1.21182 189.08 1.21207C200.146 1.21207 210.885 2.44015 221.034 4.90141C243.327 10.307 262.702 21.6382 277.065 37.6702C290.35 51.7778 303.369 65.6134 313.724 76.6288C318.33 81.5285 322.024 85.4609 324.566 88.1702C325.837 89.5249 326.82 90.5738 327.486 91.2848C327.884 91.7107 328.151 91.9959 328.327 92.1971C328.418 92.2932 328.461 92.3371 328.475 92.3511L328.465 92.3618C328.678 92.6281 328.657 92.6967 328.61 92.8551L328.609 92.8553Z" stroke="#333333" stroke-width="1.99677" stroke-linecap="round" stroke-linejoin="round"/>
</g>
<defs>
<clipPath id="clip0_39_2019">
<rect width="361" height="368" fill="white" transform="matrix(-1 0 0 1 361 0)"/>
</clipPath>
</defs>
</svg>
